<svg width="1440" height="67" viewBox="0 0 1440 67" fill="none" xmlns="http://www.w3.org/2000/svg">
<g clip-path="url(#clip0_1_30)">
<path d="M1396.3 42.8118C1388.16 33.2933 1383.83 28.7106 1374.53 28.7106C1365.22 28.7106 1360.89 33.2846 1352.75 42.8118C1344.03 53.0194 1332.07 67 1309.05 67C1286.04 67 1274.09 53.0194 1265.36 42.8118C1257.22 33.2846 1252.89 28.7106 1243.59 28.7106C1234.28 28.7106 1229.95 33.2846 1221.81 42.8118C1213.09 53.0194 1201.14 67 1178.12 67C1155.11 67 1143.16 53.0194 1134.43 42.8118C1126.29 33.2933 1121.96 28.7106 1112.66 28.7106C1103.35 28.7106 1099.02 33.2846 1090.88 42.8118C1082.16 53.0194 1070.21 67 1047.2 67C1024.19 67 1012.24 53.0194 1003.52 42.8118C995.378 33.2933 991.049 28.7106 981.753 28.7106C972.456 28.7106 968.127 33.2846 959.988 42.8118C951.262 53.0194 939.313 67 916.305 67C893.296 67 881.347 53.0194 872.621 42.8118C864.482 33.2933 860.162 28.7106 850.857 28.7106C841.552 28.7106 837.232 33.2846 829.084 42.8118C820.358 53.0194 808.409 67 785.4 67C762.392 67 750.443 53.0194 741.717 42.8118C733.578 33.2846 729.249 28.7106 719.944 28.7106C710.639 28.7106 706.319 33.2846 698.171 42.8118C689.445 53.0194 677.496 67 654.487 67C631.479 67 619.53 53.0194 610.804 42.8118C602.665 33.2846 598.336 28.7106 589.039 28.7106C579.743 28.7106 575.414 33.2846 567.275 42.8118C558.549 53.0194 546.6 67 523.592 67C500.583 67 488.634 53.0194 479.908 42.8118C471.769 33.2846 467.44 28.7106 458.144 28.7106C448.847 28.7106 444.518 33.2846 436.371 42.8118C427.645 53.0194 415.695 67 392.679 67C369.662 67 357.721 53.0194 348.995 42.8118C340.856 33.2933 336.527 28.7106 327.231 28.7106C317.934 28.7106 313.605 33.2846 305.467 42.8118C296.74 53.0194 284.791 67 261.783 67C238.775 67 226.825 53.0194 218.099 42.8118C209.96 33.2933 205.632 28.7106 196.335 28.7106C187.038 28.7106 182.71 33.2846 174.571 42.8118C165.844 53.0194 153.895 67 130.887 67C107.879 67 95.9297 53.0194 87.2033 42.8118C79.0645 33.2846 74.7358 28.7106 65.4392 28.7106C56.1426 28.7106 51.814 33.2846 43.6751 42.8118C34.9574 53.0194 23.0083 67 0 67V38.2894C9.30526 38.2894 13.6253 33.7154 21.7728 24.1882C30.4991 13.9806 42.4482 0 65.4565 0C88.4648 0 100.414 13.9806 109.14 24.1882C117.279 33.7067 121.599 38.2808 130.896 38.2808C140.192 38.2808 144.521 33.7067 152.66 24.1796C161.386 13.972 173.335 -0.00861359 196.344 -0.00861359C219.352 -0.00861359 231.301 13.972 240.027 24.1796C248.166 33.6981 252.495 38.2808 261.791 38.2808C271.088 38.2808 275.417 33.7067 283.556 24.1796C292.282 13.972 304.231 -0.00861359 327.239 -0.00861359C350.248 -0.00861359 362.197 13.972 370.923 24.1796C379.062 33.6981 383.391 38.2808 392.687 38.2808C401.984 38.2808 406.321 33.7067 414.46 24.1796C423.186 13.972 435.135 -0.00861359 458.144 -0.00861359C481.152 -0.00861359 493.11 13.972 501.827 24.1796C509.966 33.6981 514.295 38.2808 523.592 38.2808C532.888 38.2808 537.217 33.7067 545.364 24.1796C554.091 13.972 566.04 -0.00861359 589.048 -0.00861359C612.056 -0.00861359 624.005 13.972 632.732 24.1796C640.871 33.6981 645.199 38.2808 654.496 38.2808C663.793 38.2808 668.121 33.7067 676.26 24.1796C684.986 13.972 696.936 -0.00861359 719.944 -0.00861359C742.952 -0.00861359 754.901 13.972 763.628 24.1796C771.766 33.6981 776.095 38.2808 785.392 38.2808C794.688 38.2808 799.017 33.7067 807.164 24.1796C815.891 13.972 827.84 -0.00861359 850.848 -0.00861359C873.857 -0.00861359 885.806 13.972 894.532 24.1796C902.671 33.6981 906.991 38.2808 916.296 38.2808C925.601 38.2808 929.921 33.7067 938.06 24.1796C946.786 13.972 958.736 -0.00861359 981.744 -0.00861359C1004.75 -0.00861359 1016.7 13.972 1025.43 24.1796C1033.57 33.6981 1037.9 38.2808 1047.2 38.2808C1056.51 38.2808 1060.83 33.7067 1068.97 24.1796C1077.7 13.972 1089.65 -0.00861359 1112.67 -0.00861359C1135.68 -0.00861359 1147.63 13.972 1156.36 24.1796C1164.5 33.6981 1168.83 38.2808 1178.13 38.2808C1187.44 38.2808 1191.76 33.7067 1199.9 24.1796C1208.63 13.972 1220.58 -0.00861359 1243.6 -0.00861359C1266.61 -0.00861359 1278.56 13.972 1287.29 24.1796C1295.43 33.7067 1299.76 38.2808 1309.06 38.2808C1318.37 38.2808 1322.69 33.7067 1330.84 24.1796C1339.57 13.972 1351.53 -0.00861359 1374.53 -0.00861359C1397.54 -0.00861359 1409.5 13.972 1418.23 24.1796C1426.37 33.7067 1430.69 38.2808 1440.01 38.2808V67C1416.99 67 1405.04 53.0194 1396.32 42.8118H1396.3Z" fill="#FBE6E7"/>
</g>
<defs>
<clipPath id="clip0_1_30">
<rect width="1440" height="67" fill="white" transform="matrix(1 0 0 -1 0 67)"/>
</clipPath>
</defs>
</svg>
